<svg xmlns="http://www.w3.org/2000/svg" viewBox="0 0 832.96 166.41"><defs><style>.cls-1{fill:#85bbe6;}.cls-2{fill:#565e66;}.cls-3{fill:gray;}</style></defs><g id="Capa_2" data-name="Capa 2"><g id="Capa_1-2" data-name="Capa 1"><path class="cls-1" d="M117.47,111.39h21.06a62.08,62.08,0,1,1,6-37.58H126.5a44.63,44.63,0,1,0-43.63,54h.34A44.48,44.48,0,0,0,117.47,111.39Z"/><path class="cls-2" d="M166.42,83.2a83.28,83.28,0,0,1-.53,9.4H100.68a20.11,20.11,0,0,1-17.47,10.73h-.34a20.13,20.13,0,1,1,17.81-29.52h56.76A74.82,74.82,0,1,0,83.21,158v8.39A83.22,83.22,0,1,1,166.42,83.2Z"/><path class="cls-2" d="M243.17,20.72V73.54h-9.29V20.72H219.73V12h37.55v8.73Z"/><path class="cls-2" d="M291.32,47.31l19.05,26.23H299L281.43,48.35h-1.68V73.54h-9.28V12h10.88q12.19,0,17.62,4.59a16.85,16.85,0,0,1,6,13.47,17.46,17.46,0,0,1-3.75,11.24A16.7,16.7,0,0,1,291.32,47.31Zm-11.57-7.05h2.95q13.2,0,13.2-10.09,0-9.45-12.84-9.45h-3.31Z"/><path class="cls-2" d="M360.67,58.59H334.32l-6.85,15h-10L347.92,8.13l29.37,65.41H367.13Zm-3.79-8.73-9.12-20.93-9.57,20.93Z"/><path class="cls-2" d="M432.5,15.3v11q-8.06-6.74-16.66-6.73a21.23,21.23,0,0,0-16,6.81A23,23,0,0,0,393.31,43a22.43,22.43,0,0,0,6.54,16.34,21.59,21.59,0,0,0,16,6.66,19.56,19.56,0,0,0,8.33-1.6,24,24,0,0,0,4-2.15A46,46,0,0,0,432.5,59v11.2a33.5,33.5,0,0,1-16.74,4.51,30.9,30.9,0,0,1-22.53-9.21A30.53,30.53,0,0,1,384,43.05a31.62,31.62,0,0,1,7.77-21q9.57-11.28,24.76-11.28A31.46,31.46,0,0,1,432.5,15.3Z"/><path class="cls-2" d="M460.12,36.55l24-24.56h12.39L468.65,39.86l28,33.68H484.2L462,46.15l-1.91,1.92V73.54h-9.29V12h9.29Z"/><path class="cls-1" d="M534,39.3,545.1,52.69l.36-.4q1.8-1.95,3.39-3.82c1.06-1.25,2.09-2.51,3.07-3.79L558,50.9c-.75,1.06-1.72,2.3-2.93,3.71s-2.65,3-4.33,4.86l11.4,14.07H550.56L544.42,66q-8.45,8.73-17.58,8.73A19.81,19.81,0,0,1,513,69.52a17.16,17.16,0,0,1-5.58-13q0-9.21,8.85-15.31l4-2.75.28-.2.55-.44Q515,31.33,515,25a13.42,13.42,0,0,1,4.06-10.13,16.51,16.51,0,0,1,21.17-.12,12.43,12.43,0,0,1,4.14,9.57,12.23,12.23,0,0,1-2.27,7.22Q539.88,34.8,534,39.3Zm-7.37,5.22-.52.36a44.88,44.88,0,0,0-7.78,6.34,7.72,7.72,0,0,0-2,5.06,10.51,10.51,0,0,0,10.09,10.09q5.37,0,12.39-7.06Zm2-11.76.76-.56c1.3-1,2.37-1.84,3.22-2.57a12,12,0,0,0,1.84-1.85,5.55,5.55,0,0,0,1.19-3.63A5.14,5.14,0,0,0,534,20.2a6.2,6.2,0,0,0-4.39-1.51,6.07,6.07,0,0,0-4.22,1.55A4.8,4.8,0,0,0,523.69,24a8.37,8.37,0,0,0,2.16,5.34l2.31,2.79A3.81,3.81,0,0,0,528.64,32.76Z"/><path class="cls-2" d="M591.38,20.72V73.54h-9.29V20.72H567.94V12h37.55v8.73Z"/><path class="cls-2" d="M639.53,47.31l19.05,26.23H647.22L629.64,48.35H628V73.54h-9.29V12h10.88q12.2,0,17.62,4.59a16.82,16.82,0,0,1,6,13.47,17.46,17.46,0,0,1-3.75,11.24A16.7,16.7,0,0,1,639.53,47.31ZM628,40.26h2.95q13.19,0,13.19-10.09,0-9.45-12.83-9.45H628Z"/><path class="cls-2" d="M708.88,58.59H682.54l-6.86,15h-10L696.13,8.13l29.38,65.41H715.34Zm-3.78-8.73L696,28.93,686.4,49.86Z"/><path class="cls-2" d="M780.71,15.3v11q-8.06-6.74-16.66-6.73a21.21,21.21,0,0,0-16,6.81A23,23,0,0,0,741.53,43a22.43,22.43,0,0,0,6.54,16.34,21.57,21.57,0,0,0,16,6.66,19.52,19.52,0,0,0,8.33-1.6,24.06,24.06,0,0,0,4-2.15A44.73,44.73,0,0,0,780.71,59v11.2A33.45,33.45,0,0,1,764,74.66a30.88,30.88,0,0,1-22.52-9.21,30.54,30.54,0,0,1-9.29-22.4,31.62,31.62,0,0,1,7.77-21Q749.5,10.8,764.69,10.8A31.43,31.43,0,0,1,780.71,15.3Z"/><path class="cls-2" d="M831.29,20.72H806.62V35.51h24v8.73h-24V64.81h24.67v8.73h-34V12h34Z"/><path class="cls-3" d="M234.71,131.56l10.75,14.8h-6.41l-9.92-14.22h-.95v14.22h-5.24V111.62h6.14q6.88,0,9.95,2.59a9.49,9.49,0,0,1,3.37,7.6,9.94,9.94,0,0,1-2.11,6.35A9.49,9.49,0,0,1,234.71,131.56Zm-6.53-4h1.67q7.44,0,7.44-5.69,0-5.32-7.24-5.33h-1.87Z"/><path class="cls-3" d="M271.69,136.6H256a6.62,6.62,0,0,0,1.75,4.29,5.36,5.36,0,0,0,4,1.58,5.18,5.18,0,0,0,3.13-.9,12.91,12.91,0,0,0,2.77-3.33l4.27,2.38a16.43,16.43,0,0,1-2.09,2.89,10.58,10.58,0,0,1-2.36,2,9.46,9.46,0,0,1-2.72,1.14,13.35,13.35,0,0,1-3.18.36,10.3,10.3,0,0,1-7.87-3.15,11.8,11.8,0,0,1-3-8.41,12.15,12.15,0,0,1,2.88-8.42,11,11,0,0,1,15.34-.09q2.79,3.06,2.79,8.48Zm-5.2-4.14a4.84,4.84,0,0,0-5.1-4.05,5.2,5.2,0,0,0-1.74.28,4.6,4.6,0,0,0-1.47.81,5.16,5.16,0,0,0-1.14,1.27,6.15,6.15,0,0,0-.72,1.69Z"/><path class="cls-3" d="M296.15,124.45h5.08v21.91h-5.08v-2.29a9.74,9.74,0,0,1-14.25-.36,12.25,12.25,0,0,1-2.94-8.37,11.87,11.87,0,0,1,2.94-8.22,9.51,9.51,0,0,1,7.38-3.28,9.34,9.34,0,0,1,6.87,3.15Zm-12,10.89a7.64,7.64,0,0,0,1.69,5.13,5.53,5.53,0,0,0,4.36,2,5.82,5.82,0,0,0,4.55-1.94,8.34,8.34,0,0,0,0-10.17,5.75,5.75,0,0,0-4.5-2,5.61,5.61,0,0,0-4.37,2A7.3,7.3,0,0,0,284.13,135.34Z"/><path class="cls-3" d="M315.45,108.36v38h-5.07v-38Z"/><path class="cls-3" d="M352.16,116.55v29.81h-5.24V116.55h-8v-4.93h21.19v4.93Z"/><path class="cls-3" d="M366.67,115.33a3.31,3.31,0,0,1,3.28-3.26,3.16,3.16,0,0,1,2.34,1,3.1,3.1,0,0,1,1,2.32,3.19,3.19,0,0,1-1,2.34,3.12,3.12,0,0,1-2.31,1,3.18,3.18,0,0,1-2.34-1A3.22,3.22,0,0,1,366.67,115.33Zm5.83,9.12v21.91h-5.07V124.45Z"/><path class="cls-3" d="M381.67,124.45h5.06v2a10.68,10.68,0,0,1,2.5-2.07,6.15,6.15,0,0,1,2.77-.56,6.72,6.72,0,0,1,5.87,3.24,7.6,7.6,0,0,1,6.46-3.24q7.4,0,7.4,9v13.54h-5.08V134.19a9.4,9.4,0,0,0-.77-4.46,2.78,2.78,0,0,0-2.59-1.32,3.28,3.28,0,0,0-3,1.57,10.11,10.11,0,0,0-1,5.06v11.32H394.2v-12.1q0-5.85-3.37-5.85a3.41,3.41,0,0,0-3.12,1.59,10,10,0,0,0-1,5v11.32h-5.06Z"/><path class="cls-3" d="M440.84,136.6h-15.7a6.62,6.62,0,0,0,1.75,4.29,5.38,5.38,0,0,0,4,1.58,5.15,5.15,0,0,0,3.12-.9,12.71,12.71,0,0,0,2.77-3.33l4.28,2.38a16.46,16.46,0,0,1-2.1,2.89,10.58,10.58,0,0,1-2.36,2,9.46,9.46,0,0,1-2.72,1.14,13.26,13.26,0,0,1-3.17.36,10.33,10.33,0,0,1-7.88-3.15,11.8,11.8,0,0,1-3-8.41,12.15,12.15,0,0,1,2.88-8.42,11,11,0,0,1,15.35-.09q2.79,3.06,2.79,8.48Zm-5.19-4.14a4.86,4.86,0,0,0-5.11-4.05,5.15,5.15,0,0,0-1.73.28,4.65,4.65,0,0,0-1.48.81,4.93,4.93,0,0,0-1.13,1.27,5.6,5.6,0,0,0-.72,1.69Z"/><path class="cls-3" d="M472.34,111.62v29.81h10.21v4.93H467.09V111.62Z"/><path class="cls-3" d="M488.28,135.25a10.91,10.91,0,0,1,3.4-8.08,12,12,0,0,1,16.61,0,11.73,11.73,0,0,1,0,16.49,11.58,11.58,0,0,1-8.39,3.31,11.15,11.15,0,0,1-8.26-3.37A11.38,11.38,0,0,1,488.28,135.25Zm5.18.09a7.38,7.38,0,0,0,1.75,5.19,6.82,6.82,0,0,0,9.5,0,8.22,8.22,0,0,0,0-10.22,6.75,6.75,0,0,0-9.45,0A7,7,0,0,0,493.46,135.34Z"/><path class="cls-3" d="M536.83,125.39v6.73a12.22,12.22,0,0,0-3.1-2.9,6.05,6.05,0,0,0-3.17-.81,6.23,6.23,0,0,0-4.75,2,7,7,0,0,0-1.89,5,7.21,7.21,0,0,0,1.82,5.06,6.15,6.15,0,0,0,4.7,2,6.48,6.48,0,0,0,3.22-.79,12.67,12.67,0,0,0,3.17-3v6.68a13.22,13.22,0,0,1-6.16,1.6,11.81,11.81,0,0,1-8.5-3.28,11,11,0,0,1-3.42-8.22,11.11,11.11,0,0,1,3.46-8.28,11.71,11.71,0,0,1,8.5-3.37A12.76,12.76,0,0,1,536.83,125.39Z"/><path class="cls-3" d="M560.66,124.45h5.08v21.91h-5.08v-2.29a9.73,9.73,0,0,1-14.24-.36,12.21,12.21,0,0,1-2.95-8.37,11.83,11.83,0,0,1,2.95-8.22,9.48,9.48,0,0,1,7.38-3.28,9.34,9.34,0,0,1,6.86,3.15Zm-12,10.89a7.7,7.7,0,0,0,1.69,5.13,5.54,5.54,0,0,0,4.37,2,5.82,5.82,0,0,0,4.54-1.94,8.34,8.34,0,0,0,0-10.17,5.74,5.74,0,0,0-4.5-2,5.59,5.59,0,0,0-4.36,2A7.26,7.26,0,0,0,548.64,135.34Z"/><path class="cls-3" d="M580.12,129.17v17.19h-5.07V129.17h-2.16v-4.72h2.16v-8h5.07v8h3.93v4.72Z"/><path class="cls-3" d="M589.5,115.33a3.29,3.29,0,0,1,5.62-2.29,3.1,3.1,0,0,1,1,2.32,3.19,3.19,0,0,1-1,2.34,3.12,3.12,0,0,1-2.32,1,3.22,3.22,0,0,1-2.34-1A3.25,3.25,0,0,1,589.5,115.33Zm5.82,9.12v21.91h-5.06V124.45Z"/><path class="cls-3" d="M603.46,135.25a10.91,10.91,0,0,1,3.4-8.08,12,12,0,0,1,16.61,0,11.73,11.73,0,0,1,0,16.49,11.58,11.58,0,0,1-8.39,3.31,11.15,11.15,0,0,1-8.26-3.37A11.38,11.38,0,0,1,603.46,135.25Zm5.18.09a7.38,7.38,0,0,0,1.75,5.19,6.82,6.82,0,0,0,9.5,0,8.22,8.22,0,0,0,0-10.22,6.75,6.75,0,0,0-9.45,0A7,7,0,0,0,608.64,135.34Z"/><path class="cls-3" d="M635,124.45h5.09v2a8.3,8.3,0,0,1,6-2.63,7.53,7.53,0,0,1,6,2.41q1.85,2,1.85,6.68v13.43h-5.09V134.12c0-2.16-.3-3.65-.9-4.48a3.62,3.62,0,0,0-3.19-1.26,3.92,3.92,0,0,0-3.58,1.67q-1,1.63-1,5.74v10.57H635Z"/><path class="cls-3" d="M700.58,116.8l-4.25,2.52a7.26,7.26,0,0,0-2.27-2.7,5.3,5.3,0,0,0-2.9-.72,5.37,5.37,0,0,0-3.62,1.23,3.84,3.84,0,0,0-1.44,3.06c0,1.7,1.26,3.06,3.78,4.1l3.46,1.42a14.86,14.86,0,0,1,6.19,4.17,9.43,9.43,0,0,1,2,6,10.61,10.61,0,0,1-3.19,7.92,11,11,0,0,1-8,3.15,10.68,10.68,0,0,1-7.47-2.68,12.32,12.32,0,0,1-3.62-7.53l5.31-1.17a9.11,9.11,0,0,0,1.26,4.23,6,6,0,0,0,8.8.6,5.67,5.67,0,0,0,1.62-4.16,6.15,6.15,0,0,0-.28-1.86,4.71,4.71,0,0,0-.88-1.55,7.35,7.35,0,0,0-1.54-1.33,15.56,15.56,0,0,0-2.25-1.18L687.9,129q-7.14-3-7.14-8.82a8.37,8.37,0,0,1,3-6.55A10.78,10.78,0,0,1,691.2,111Q697.22,111,700.58,116.8Z"/><path class="cls-3" d="M716.51,142.29l-9.85-17.84h5.87l6.7,12.6,6.26-12.6h5.71l-17.46,33.83H708Z"/><path class="cls-3" d="M750.15,128.18,746,130.41c-.66-1.35-1.48-2-2.45-2a1.7,1.7,0,0,0-1.19.46,1.57,1.57,0,0,0-.5,1.19c0,.83,1,1.67,2.93,2.49a17.47,17.47,0,0,1,5.42,3.2,5.45,5.45,0,0,1,1.39,3.94,6.91,6.91,0,0,1-2.34,5.31,7.94,7.94,0,0,1-5.49,2q-5.51,0-7.8-5.38l4.32-2a9.06,9.06,0,0,0,1.37,2,3.12,3.12,0,0,0,2.2.86c1.71,0,2.57-.78,2.57-2.34q0-1.35-2-2.52c-.51-.26-1-.51-1.53-.74l-1.55-.75a9.53,9.53,0,0,1-3.11-2.16,5.33,5.33,0,0,1-1.15-3.53,6.26,6.26,0,0,1,2-4.72,6.86,6.86,0,0,1,4.86-1.87C746.7,123.84,748.78,125.29,750.15,128.18Z"/><path class="cls-3" d="M764.09,129.17v17.19H759V129.17h-2.16v-4.72H759v-8h5.06v8H768v4.72Z"/><path class="cls-3" d="M794.6,136.6H778.89a6.63,6.63,0,0,0,1.76,4.29,5.34,5.34,0,0,0,4,1.58,5.2,5.2,0,0,0,3.13-.9,12.91,12.91,0,0,0,2.77-3.33l4.27,2.38a17,17,0,0,1-2.09,2.89,10.8,10.8,0,0,1-2.36,2,9.4,9.4,0,0,1-2.73,1.14,13.2,13.2,0,0,1-3.17.36,10.3,10.3,0,0,1-7.87-3.15,11.8,11.8,0,0,1-3-8.41,12.15,12.15,0,0,1,2.88-8.42,11,11,0,0,1,15.34-.09q2.79,3.06,2.79,8.48Zm-5.2-4.14a4.85,4.85,0,0,0-5.11-4.05,5.19,5.19,0,0,0-1.73.28,4.6,4.6,0,0,0-1.47.81,5,5,0,0,0-1.14,1.27,6.15,6.15,0,0,0-.72,1.69Z"/><path class="cls-3" d="M802.9,124.45H808v2a10.68,10.68,0,0,1,2.5-2.07,6.08,6.08,0,0,1,2.76-.56,6.72,6.72,0,0,1,5.88,3.24,7.59,7.59,0,0,1,6.45-3.24q7.41,0,7.41,9v13.54h-5.09V134.19a9.43,9.43,0,0,0-.76-4.46,2.79,2.79,0,0,0-2.59-1.32,3.3,3.3,0,0,0-3,1.57,10.11,10.11,0,0,0-1,5.06v11.32h-5.08v-12.1c0-3.9-1.13-5.85-3.37-5.85a3.39,3.39,0,0,0-3.12,1.59,10,10,0,0,0-1,5v11.32H802.9Z"/></g></g></svg>