<svg xmlns="http://www.w3.org/2000/svg" viewBox="0 0 459.52 543.41"><defs><style>.cls-1{fill:#565e66;}.cls-2{fill:#85bbe6;}</style></defs><g id="Capa_2" data-name="Capa 2"><g id="Capa_1-2" data-name="Capa 1"><path class="cls-1" d="M17.56,440.33V479.9h-7V440.33H0v-6.55H28.14v6.55Z"/><path class="cls-1" d="M53.65,460.25,67.92,479.9H59.41L46.24,461H45V479.9H38V433.78h8.16q9.14,0,13.2,3.44a12.61,12.61,0,0,1,4.48,10.1,13.12,13.12,0,0,1-2.81,8.42A12.52,12.52,0,0,1,53.65,460.25ZM45,455h2.21q9.89,0,9.89-7.56,0-7.06-9.62-7.07H45Z"/><path class="cls-1" d="M105.62,468.7H85.87l-5.14,11.2H73.24l22.82-49,22,49h-7.61Zm-2.84-6.54-6.84-15.68-7.17,15.68Z"/><path class="cls-1" d="M159.44,436.26v8.25q-6-5.06-12.49-5.05a15.86,15.86,0,0,0-12,5.11,17.18,17.18,0,0,0-4.9,12.42,16.79,16.79,0,0,0,4.9,12.25,16.14,16.14,0,0,0,12,5,14.73,14.73,0,0,0,6.25-1.2,17.55,17.55,0,0,0,3-1.61,36.38,36.38,0,0,0,3.24-2.45v8.4a25.12,25.12,0,0,1-12.55,3.37,23.13,23.13,0,0,1-16.87-6.9,22.89,22.89,0,0,1-7-16.79,23.7,23.7,0,0,1,5.82-15.71,23.2,23.2,0,0,1,18.55-8.45A23.55,23.55,0,0,1,159.44,436.26Z"/><path class="cls-1" d="M180.14,452.18l18-18.4h9.29l-20.85,20.88,21,25.24h-9.32l-16.61-20.52-1.43,1.44V479.9h-7V433.78h7Z"/><path class="cls-2" d="M235.51,454.25l8.31,10,.27-.3c.89-1,1.74-1.93,2.53-2.86s1.57-1.89,2.31-2.84l4.54,4.66c-.56.79-1.29,1.72-2.2,2.78s-2,2.27-3.24,3.64l8.54,10.54h-8.66l-4.6-5.64q-6.33,6.54-13.17,6.54a14.83,14.83,0,0,1-10.4-3.91,12.85,12.85,0,0,1-4.18-9.74q0-6.9,6.63-11.47l3-2.06.21-.15.42-.33q-4.58-4.86-4.57-9.59a10.08,10.08,0,0,1,3-7.59,12.36,12.36,0,0,1,15.86-.08,9.29,9.29,0,0,1,3.11,7.16,9.19,9.19,0,0,1-1.7,5.41A29.25,29.25,0,0,1,235.51,454.25ZM230,458.16l-.39.27a33.39,33.39,0,0,0-5.83,4.75,5.79,5.79,0,0,0-1.52,3.79,7.87,7.87,0,0,0,7.56,7.56q4,0,9.29-5.29Zm1.49-8.81.57-.42c1-.74,1.78-1.38,2.42-1.93a9.1,9.1,0,0,0,1.37-1.39,4.15,4.15,0,0,0,.9-2.72,3.82,3.82,0,0,0-1.23-2.95,4.61,4.61,0,0,0-3.28-1.14,4.53,4.53,0,0,0-3.17,1.17,3.55,3.55,0,0,0-1.28,2.84,6.28,6.28,0,0,0,1.61,4l1.73,2.09A3.41,3.41,0,0,0,231.48,449.35Z"/><path class="cls-1" d="M278.49,440.33V479.9h-7V440.33h-10.6v-6.55h28.14v6.55Z"/><path class="cls-1" d="M314.57,460.25l14.28,19.65h-8.51L307.17,461h-1.26V479.9h-7V433.78h8.16q9.13,0,13.2,3.44a12.61,12.61,0,0,1,4.48,10.1,13.12,13.12,0,0,1-2.81,8.42A12.52,12.52,0,0,1,314.57,460.25ZM305.91,455h2.21q9.88,0,9.89-7.56,0-7.06-9.62-7.07h-2.48Z"/><path class="cls-1" d="M366.55,468.7H346.8l-5.14,11.2h-7.49l22.82-49,22,49h-7.61Zm-2.84-6.54-6.84-15.68-7.17,15.68Z"/><path class="cls-1" d="M420.37,436.26v8.25q-6-5.06-12.49-5.05a15.86,15.86,0,0,0-12,5.11A17.18,17.18,0,0,0,391,457a16.79,16.79,0,0,0,4.9,12.25,16.14,16.14,0,0,0,12,5,14.73,14.73,0,0,0,6.25-1.2,17.55,17.55,0,0,0,3-1.61,36.38,36.38,0,0,0,3.24-2.45v8.4a25.15,25.15,0,0,1-12.55,3.37,23.13,23.13,0,0,1-16.87-6.9,22.89,22.89,0,0,1-7-16.79,23.7,23.7,0,0,1,5.82-15.71,23.2,23.2,0,0,1,18.55-8.45A23.55,23.55,0,0,1,420.37,436.26Z"/><path class="cls-1" d="M458.27,440.33H439.78v11.08h18V458h-18v15.41h18.49v6.54H432.82V433.78h25.45Z"/><path class="cls-1" d="M11.23,523.38l8.05,11.09h-4.8L7,523.81h-.7v10.66H2.41v-26H7q5.16,0,7.45,1.94a7.12,7.12,0,0,1,2.53,5.7,7.43,7.43,0,0,1-1.58,4.75A7.06,7.06,0,0,1,11.23,523.38Zm-4.89-3H7.58q5.58,0,5.58-4.26,0-4-5.42-4H6.34Z"/><path class="cls-1" d="M38.94,527.15H27.17a4.94,4.94,0,0,0,1.32,3.22,4,4,0,0,0,3,1.18,3.84,3.84,0,0,0,2.34-.67,9.56,9.56,0,0,0,2.08-2.5l3.2,1.79a12.64,12.64,0,0,1-1.57,2.17,8.39,8.39,0,0,1-1.77,1.48,7.05,7.05,0,0,1-2,.85,9.88,9.88,0,0,1-2.37.27,7.7,7.7,0,0,1-5.9-2.36,8.8,8.8,0,0,1-2.23-6.3A9.1,9.1,0,0,1,25.37,520a7.45,7.45,0,0,1,5.76-2.38,7.39,7.39,0,0,1,5.74,2.31A9.11,9.11,0,0,1,39,526.26Zm-3.89-3.1a3.64,3.64,0,0,0-3.83-3,3.94,3.94,0,0,0-1.3.21,3.79,3.79,0,0,0-1.1.6,4,4,0,0,0-.86,1,4.79,4.79,0,0,0-.54,1.26Z"/><path class="cls-1" d="M57.26,518.05h3.81v16.42H57.26v-1.72a7.29,7.29,0,0,1-10.67-.27,9.15,9.15,0,0,1-2.21-6.27,8.88,8.88,0,0,1,2.21-6.15,7.1,7.1,0,0,1,5.53-2.47A7,7,0,0,1,57.26,520Zm-9,8.16a5.68,5.68,0,0,0,1.27,3.84,4.13,4.13,0,0,0,3.27,1.5,4.33,4.33,0,0,0,3.4-1.45,6.23,6.23,0,0,0,0-7.62A4.3,4.3,0,0,0,52.83,521a4.2,4.2,0,0,0-3.27,1.48A5.45,5.45,0,0,0,48.26,526.21Z"/><path class="cls-1" d="M71.73,506v28.48h-3.8V506Z"/><path class="cls-1" d="M99.24,512.13v22.34H95.31V512.13h-6v-3.69h15.89v3.69Z"/><path class="cls-1" d="M110.11,511.22a2.36,2.36,0,0,1,.72-1.72,2.4,2.4,0,0,1,1.74-.72,2.38,2.38,0,0,1,1.75.72,2.31,2.31,0,0,1,.73,1.74,2.49,2.49,0,0,1-2.46,2.48,2.48,2.48,0,0,1-2.48-2.5Zm4.37,6.83v16.42h-3.8V518.05Z"/><path class="cls-1" d="M121.35,518.05h3.8v1.52A7.48,7.48,0,0,1,127,518a4.41,4.41,0,0,1,2.07-.43,5,5,0,0,1,4.4,2.43,5.7,5.7,0,0,1,4.84-2.43q5.55,0,5.55,6.73v10.15h-3.81v-9.12a6.94,6.94,0,0,0-.58-3.34,2.07,2.07,0,0,0-1.93-1,2.47,2.47,0,0,0-2.29,1.18,7.54,7.54,0,0,0-.72,3.79v8.48h-3.81V525.4q0-4.38-2.52-4.38a2.55,2.55,0,0,0-2.34,1.19,7.48,7.48,0,0,0-.73,3.78v8.48h-3.8Z"/><path class="cls-1" d="M165.69,527.15H153.92a5,5,0,0,0,1.32,3.22,4,4,0,0,0,3,1.18,3.89,3.89,0,0,0,2.35-.67,9.77,9.77,0,0,0,2.07-2.5l3.2,1.79a12.62,12.62,0,0,1-1.56,2.17,8.92,8.92,0,0,1-1.77,1.48,7.05,7.05,0,0,1-2,.85,10,10,0,0,1-2.38.27,7.7,7.7,0,0,1-5.9-2.36,8.8,8.8,0,0,1-2.23-6.3,9.1,9.1,0,0,1,2.16-6.31,8.22,8.22,0,0,1,11.5-.07,9.11,9.11,0,0,1,2.09,6.36Zm-3.89-3.1a3.64,3.64,0,0,0-3.83-3,4,4,0,0,0-1.3.21,3.79,3.79,0,0,0-1.1.6,3.91,3.91,0,0,0-.85,1,4.21,4.21,0,0,0-.54,1.26Z"/><path class="cls-1" d="M189.29,508.44v22.34H197v3.69H185.36v-26Z"/><path class="cls-1" d="M201.24,526.14a8.14,8.14,0,0,1,2.55-6,9,9,0,0,1,12.44,0,8.78,8.78,0,0,1,0,12.35,8.67,8.67,0,0,1-6.29,2.48,8.31,8.31,0,0,1-6.18-2.53A8.47,8.47,0,0,1,201.24,526.14Zm3.88.07a5.55,5.55,0,0,0,1.31,3.89,5.12,5.12,0,0,0,7.12,0,6.17,6.17,0,0,0,0-7.65A4.63,4.63,0,0,0,210,521a4.57,4.57,0,0,0-3.52,1.45A5.25,5.25,0,0,0,205.12,526.21Z"/><path class="cls-1" d="M237.62,518.76v5a9.34,9.34,0,0,0-2.32-2.18,4.6,4.6,0,0,0-2.38-.6,4.68,4.68,0,0,0-3.56,1.5,5.28,5.28,0,0,0-1.42,3.76,5.38,5.38,0,0,0,1.37,3.79,4.6,4.6,0,0,0,3.52,1.48,4.73,4.73,0,0,0,2.41-.59,9.4,9.4,0,0,0,2.38-2.22v5a10.05,10.05,0,0,1-4.62,1.19,8.84,8.84,0,0,1-6.37-2.46,8.2,8.2,0,0,1-2.56-6.15,8.34,8.34,0,0,1,2.59-6.21,8.82,8.82,0,0,1,6.38-2.53A9.46,9.46,0,0,1,237.62,518.76Z"/><path class="cls-1" d="M255.47,518.05h3.81v16.42h-3.81v-1.72a7.29,7.29,0,0,1-10.67-.27,9.15,9.15,0,0,1-2.21-6.27,8.88,8.88,0,0,1,2.21-6.15,7.1,7.1,0,0,1,5.53-2.47,7,7,0,0,1,5.14,2.36Zm-9,8.16a5.68,5.68,0,0,0,1.27,3.84,4.13,4.13,0,0,0,3.27,1.5,4.33,4.33,0,0,0,3.4-1.45,6.23,6.23,0,0,0,0-7.62A4.3,4.3,0,0,0,251,521a4.2,4.2,0,0,0-3.27,1.48A5.45,5.45,0,0,0,246.47,526.21Z"/><path class="cls-1" d="M270.05,521.59v12.88h-3.79V521.59h-1.62v-3.54h1.62v-6h3.79v6h3v3.54Z"/><path class="cls-1" d="M277.08,511.22a2.48,2.48,0,0,1,2.47-2.44,2.39,2.39,0,0,1,1.75.72,2.34,2.34,0,0,1,.72,1.74,2.39,2.39,0,0,1-.72,1.75,2.35,2.35,0,0,1-1.74.73,2.49,2.49,0,0,1-2.48-2.5Zm4.37,6.83v16.42h-3.79V518.05Z"/><path class="cls-1" d="M287.55,526.14a8.14,8.14,0,0,1,2.55-6,9,9,0,0,1,12.44,0,8.37,8.37,0,0,1,2.53,6.17,8.29,8.29,0,0,1-2.55,6.18,8.67,8.67,0,0,1-6.29,2.48,8.31,8.31,0,0,1-6.18-2.53A8.47,8.47,0,0,1,287.55,526.14Zm3.88.07a5.55,5.55,0,0,0,1.31,3.89,5.12,5.12,0,0,0,7.12,0,6.17,6.17,0,0,0,0-7.65A4.63,4.63,0,0,0,296.3,521a4.57,4.57,0,0,0-3.52,1.45A5.25,5.25,0,0,0,291.43,526.21Z"/><path class="cls-1" d="M311.15,518.05H315v1.52a6.21,6.21,0,0,1,4.49-2,5.69,5.69,0,0,1,4.47,1.81q1.38,1.53,1.38,5v10.06h-3.81V525.3a6,6,0,0,0-.68-3.36,2.71,2.71,0,0,0-2.39-.94,2.93,2.93,0,0,0-2.68,1.25,8.53,8.53,0,0,0-.78,4.3v7.92h-3.81Z"/><path class="cls-1" d="M360.33,512.32l-3.19,1.89a5.54,5.54,0,0,0-1.7-2,4.52,4.52,0,0,0-4.89.39,2.87,2.87,0,0,0-1.08,2.29c0,1.27.94,2.3,2.83,3.07l2.6,1.06a11.09,11.09,0,0,1,4.63,3.13,7,7,0,0,1,1.47,4.53,8,8,0,0,1-2.39,5.93,8.2,8.2,0,0,1-6,2.36,8,8,0,0,1-5.59-2,9.2,9.2,0,0,1-2.72-5.65l4-.88a6.75,6.75,0,0,0,.94,3.17,4.49,4.49,0,0,0,6.6.46,4.29,4.29,0,0,0,1.21-3.12,4.36,4.36,0,0,0-.21-1.39,3.49,3.49,0,0,0-.66-1.17,5.45,5.45,0,0,0-1.15-1,11.49,11.49,0,0,0-1.69-.89l-2.51-1q-5.35-2.27-5.35-6.61a6.27,6.27,0,0,1,2.25-4.91,8.11,8.11,0,0,1,5.58-2C356.3,507.93,358.64,509.4,360.33,512.32Z"/><path class="cls-1" d="M372.26,531.42l-7.38-13.37h4.4l5,9.44,4.69-9.44h4.28l-13.08,25.36h-4.33Z"/><path class="cls-1" d="M397.47,520.85l-3.14,1.67c-.5-1-1.11-1.52-1.84-1.52a1.21,1.21,0,0,0-.89.35,1.13,1.13,0,0,0-.37.88c0,.63.73,1.25,2.19,1.87a13.19,13.19,0,0,1,4.06,2.4,4.08,4.08,0,0,1,1,3,5.19,5.19,0,0,1-1.76,4,6.29,6.29,0,0,1-10-2.52l3.24-1.5a6.71,6.71,0,0,0,1,1.5,2.33,2.33,0,0,0,1.65.64c1.28,0,1.92-.58,1.92-1.75,0-.67-.5-1.3-1.48-1.89l-1.15-.55-1.16-.56a7.05,7.05,0,0,1-2.33-1.62,4,4,0,0,1-.86-2.65,4.7,4.7,0,0,1,1.47-3.54,5.15,5.15,0,0,1,3.64-1.4A5,5,0,0,1,397.47,520.85Z"/><path class="cls-1" d="M407.91,521.59v12.88h-3.79V521.59H402.5v-3.54h1.62v-6h3.79v6h3v3.54Z"/><path class="cls-1" d="M430.77,527.15H419a5,5,0,0,0,1.31,3.22,4,4,0,0,0,3,1.18,3.88,3.88,0,0,0,2.34-.67,9.37,9.37,0,0,0,2.07-2.5l3.21,1.79a13.2,13.2,0,0,1-1.57,2.17,8.39,8.39,0,0,1-1.77,1.48,7.05,7.05,0,0,1-2,.85,9.91,9.91,0,0,1-2.38.27,7.7,7.7,0,0,1-5.9-2.36,8.85,8.85,0,0,1-2.23-6.3A9.1,9.1,0,0,1,417.2,520a7.46,7.46,0,0,1,5.77-2.38,7.37,7.37,0,0,1,5.73,2.31,9.11,9.11,0,0,1,2.09,6.36Zm-3.89-3.1a3.63,3.63,0,0,0-3.83-3,4,4,0,0,0-1.3.21,3.79,3.79,0,0,0-1.1.6,4.12,4.12,0,0,0-.85,1,4.21,4.21,0,0,0-.54,1.26Z"/><path class="cls-1" d="M437,518.05h3.8v1.52a7.48,7.48,0,0,1,1.87-1.55,4.41,4.41,0,0,1,2.07-.43,5,5,0,0,1,4.4,2.43,5.7,5.7,0,0,1,4.84-2.43q5.55,0,5.55,6.73v10.15h-3.81v-9.12a6.94,6.94,0,0,0-.58-3.34,2.07,2.07,0,0,0-1.93-1,2.47,2.47,0,0,0-2.29,1.18,7.54,7.54,0,0,0-.72,3.79v8.48h-3.81V525.4q0-4.38-2.52-4.38a2.55,2.55,0,0,0-2.34,1.19,7.48,7.48,0,0,0-.73,3.78v8.48H437Z"/><path class="cls-2" d="M310.55,251.51H358.1a140.19,140.19,0,1,1,13.63-84.85H330.94a100.77,100.77,0,1,0-98.52,122c.25,0,.5,0,.76,0A100.49,100.49,0,0,0,310.55,251.51Z"/><path class="cls-1" d="M421.06,187.88a187.88,187.88,0,0,1-1.19,21.2H272.63a45.42,45.42,0,0,1-39.45,24.24h-.76a45.46,45.46,0,1,1,40.21-66.67H400.8A168.95,168.95,0,1,0,233.18,356.82v18.93c-103.77,0-187.88-84.11-187.88-187.87S129.41,0,233.18,0A187.77,187.77,0,0,1,421.06,187.88Z"/></g></g></svg>